<svg xmlns="http://www.w3.org/2000/svg" width="1600" height="800" viewBox="0 0 1600 800" role="img"><title>ModuleDex MCP Server &amp; Audit for Odoo 19.0</title><rect x="0" y="0" width="1600" height="800" rx="0" fill="#F5F2EA"/><rect x="852" y="0" width="748" height="800" rx="0" fill="#16232D"/><path d="M876 0 V800" stroke="#24333E" stroke-width="1" stroke-linecap="round" stroke-linejoin="round" fill="none" /><path d="M924 0 V800" stroke="#24333E" stroke-width="1" stroke-linecap="round" stroke-linejoin="round" fill="none" /><path d="M972 0 V800" stroke="#24333E" stroke-width="1" stroke-linecap="round" stroke-linejoin="round" fill="none" /><path d="M1020 0 V800" stroke="#24333E" stroke-width="1" stroke-linecap="round" stroke-linejoin="round" fill="none" /><path d="M1068 0 V800" stroke="#24333E" stroke-width="1" stroke-linecap="round" stroke-linejoin="round" fill="none" /><path d="M1116 0 V800" stroke="#24333E" stroke-width="1" stroke-linecap="round" stroke-linejoin="round" fill="none" /><path d="M1164 0 V800" stroke="#24333E" stroke-width="1" stroke-linecap="round" stroke-linejoin="round" fill="none" /><path d="M1212 0 V800" stroke="#24333E" stroke-width="1" stroke-linecap="round" stroke-linejoin="round" fill="none" /><path d="M1260 0 V800" stroke="#24333E" stroke-width="1" stroke-linecap="round" stroke-linejoin="round" fill="none" /><path d="M1308 0 V800" stroke="#24333E" stroke-width="1" stroke-linecap="round" stroke-linejoin="round" fill="none" /><path d="M1356 0 V800" stroke="#24333E" stroke-width="1" stroke-linecap="round" stroke-linejoin="round" fill="none" /><path d="M1404 0 V800" stroke="#24333E" stroke-width="1" stroke-linecap="round" stroke-linejoin="round" fill="none" /><path d="M1452 0 V800" stroke="#24333E" stroke-width="1" stroke-linecap="round" stroke-linejoin="round" fill="none" /><path d="M1500 0 V800" stroke="#24333E" stroke-width="1" stroke-linecap="round" stroke-linejoin="round" fill="none" /><path d="M1548 0 V800" stroke="#24333E" stroke-width="1" stroke-linecap="round" stroke-linejoin="round" fill="none" /><path d="M1596 0 V800" stroke="#24333E" stroke-width="1" stroke-linecap="round" stroke-linejoin="round" fill="none" /><path d="M852 20 H1600" stroke="#24333E" stroke-width="1" stroke-linecap="round" stroke-linejoin="round" fill="none" /><path d="M852 68 H1600" stroke="#24333E" stroke-width="1" stroke-linecap="round" stroke-linejoin="round" fill="none" /><path d="M852 116 H1600" stroke="#24333E" stroke-width="1" stroke-linecap="round" stroke-linejoin="round" fill="none" /><path d="M852 164 H1600" stroke="#24333E" stroke-width="1" stroke-linecap="round" stroke-linejoin="round" fill="none" /><path d="M852 212 H1600" stroke="#24333E" stroke-width="1" stroke-linecap="round" stroke-linejoin="round" fill="none" /><path d="M852 260 H1600" stroke="#24333E" stroke-width="1" stroke-linecap="round" stroke-linejoin="round" fill="none" /><path d="M852 308 H1600" stroke="#24333E" stroke-width="1" stroke-linecap="round" stroke-linejoin="round" fill="none" /><path d="M852 356 H1600" stroke="#24333E" stroke-width="1" stroke-linecap="round" stroke-linejoin="round" fill="none" /><path d="M852 404 H1600" stroke="#24333E" stroke-width="1" stroke-linecap="round" stroke-linejoin="round" fill="none" /><path d="M852 452 H1600" stroke="#24333E" stroke-width="1" stroke-linecap="round" stroke-linejoin="round" fill="none" /><path d="M852 500 H1600" stroke="#24333E" stroke-width="1" stroke-linecap="round" stroke-linejoin="round" fill="none" /><path d="M852 548 H1600" stroke="#24333E" stroke-width="1" stroke-linecap="round" stroke-linejoin="round" fill="none" /><path d="M852 596 H1600" stroke="#24333E" stroke-width="1" stroke-linecap="round" stroke-linejoin="round" fill="none" /><path d="M852 644 H1600" stroke="#24333E" stroke-width="1" stroke-linecap="round" stroke-linejoin="round" fill="none" /><path d="M852 692 H1600" stroke="#24333E" stroke-width="1" stroke-linecap="round" stroke-linejoin="round" fill="none" /><path d="M852 740 H1600" stroke="#24333E" stroke-width="1" stroke-linecap="round" stroke-linejoin="round" fill="none" /><path d="M852 788 H1600" stroke="#24333E" stroke-width="1" stroke-linecap="round" stroke-linejoin="round" fill="none" /><circle cx="1464" cy="118" r="204" fill="none" stroke="#5864C7" stroke-width="2" opacity=".65"/><circle cx="1464" cy="118" r="173" fill="none" stroke="#5864C7" stroke-width="1" opacity=".4"/><rect x="62" y="55" width="46" height="46" rx="12" fill="#5864C7"/><path d="M74 84 V69 l11 10 l11 -10 V84" stroke="#FFFFFF" stroke-width="3" stroke-linecap="round" stroke-linejoin="round" fill="none" /><text x="122" y="87" font-family="Montserrat, DejaVu Sans, sans-serif" font-size="29" font-weight="700" fill="#18252F">ModuleDex</text><text x="62" y="163" font-family="Montserrat, DejaVu Sans, sans-serif" font-size="17" font-weight="700" fill="#5864C7">AI / CONTROLLED AUTOMATION</text><rect x="62" y="185" width="67" height="5" rx="2" fill="#5864C7"/><text x="57" y="290" font-family="Montserrat, DejaVu Sans, sans-serif" font-size="72" font-weight="700" fill="#18252F">MCP Server</text><text x="57" y="378" font-family="Montserrat, DejaVu Sans, sans-serif" font-size="72" font-weight="700" fill="#18252F">&amp; Audit</text><text x="62" y="436" font-family="Montserrat, DejaVu Sans, sans-serif" font-size="28" font-weight="500" fill="#50616B">Connect AI to Odoo.</text><text x="62" y="478" font-family="Montserrat, DejaVu Sans, sans-serif" font-size="28" font-weight="500" fill="#50616B">Keep every action accountable.</text><circle cx="70" cy="541" r="5" fill="#5864C7"/><text x="87" y="548" font-family="Montserrat, DejaVu Sans, sans-serif" font-size="21" font-weight="600" fill="#334852">Tool permissions</text><circle cx="70" cy="578" r="5" fill="#5864C7"/><text x="87" y="585" font-family="Montserrat, DejaVu Sans, sans-serif" font-size="21" font-weight="600" fill="#334852">Write approvals</text><circle cx="70" cy="615" r="5" fill="#5864C7"/><text x="87" y="622" font-family="Montserrat, DejaVu Sans, sans-serif" font-size="21" font-weight="600" fill="#334852">Call logging</text><path d="M62 692 H790" stroke="#D2D5CB" stroke-width="1" stroke-linecap="round" stroke-linejoin="round" fill="none" /><text x="62" y="733" font-family="Montserrat, DejaVu Sans, sans-serif" font-size="16" font-weight="600" fill="#50616B">ODOO 19.0  /  MODULEDEX ADDONS</text><text x="922" y="91" font-family="Montserrat, DejaVu Sans, sans-serif" font-size="16" font-weight="600" fill="#B6C7D2">THE MODULEDEX COLLECTION</text><text x="922" y="133" font-family="Montserrat, DejaVu Sans, sans-serif" font-size="22" font-weight="600" fill="#F6F4EE">MCP / WORKFLOW</text><rect x="921" y="245" width="170" height="56" rx="12" fill="#304156"/><text x="941" y="281" font-family="Montserrat, DejaVu Sans, sans-serif" font-size="22" font-weight="500" fill="#F6F4EE">Claude</text><path d="M1092 273 H1135 V359 H1170" stroke="#5864C7" stroke-width="2" stroke-linecap="round" stroke-linejoin="round" fill="none" /><rect x="921" y="331" width="170" height="56" rx="12" fill="#304156"/><text x="941" y="367" font-family="Montserrat, DejaVu Sans, sans-serif" font-size="22" font-weight="500" fill="#F6F4EE">ChatGPT</text><path d="M1092 359 H1135 V359 H1170" stroke="#5864C7" stroke-width="2" stroke-linecap="round" stroke-linejoin="round" fill="none" /><rect x="921" y="417" width="170" height="56" rx="12" fill="#304156"/><text x="941" y="453" font-family="Montserrat, DejaVu Sans, sans-serif" font-size="22" font-weight="500" fill="#F6F4EE">Cursor</text><path d="M1092 445 H1135 V359 H1170" stroke="#5864C7" stroke-width="2" stroke-linecap="round" stroke-linejoin="round" fill="none" /><rect x="1173" y="252" width="330" height="253" rx="18" fill="#101820"/><rect x="1166" y="242" width="330" height="253" rx="18" fill="#202D37" stroke="#40505C"/><text x="1190" y="281" font-family="Montserrat, DejaVu Sans, sans-serif" font-size="22" font-weight="600" fill="#F6F4EE">ODOO / MCP</text><path d="M1186 301 H1476" stroke="#40505C" stroke-width="1" stroke-linecap="round" stroke-linejoin="round" fill="none" /><circle cx="1197" cy="340" r="14" fill="#5864C7"/><path d="M1191 340 l4 4 l8 -9" stroke="#FFFFFF" stroke-width="2" stroke-linecap="round" stroke-linejoin="round" fill="none" /><text x="1220" y="347" font-family="Montserrat, DejaVu Sans, sans-serif" font-size="18" font-weight="500" fill="#F6F4EE">Tool permissions</text><circle cx="1197" cy="393" r="14" fill="#5864C7"/><path d="M1191 393 l4 4 l8 -9" stroke="#FFFFFF" stroke-width="2" stroke-linecap="round" stroke-linejoin="round" fill="none" /><text x="1220" y="400" font-family="Montserrat, DejaVu Sans, sans-serif" font-size="18" font-weight="500" fill="#F6F4EE">Approve writes</text><circle cx="1197" cy="446" r="14" fill="#5864C7"/><path d="M1191 446 l4 4 l8 -9" stroke="#FFFFFF" stroke-width="2" stroke-linecap="round" stroke-linejoin="round" fill="none" /><text x="1220" y="453" font-family="Montserrat, DejaVu Sans, sans-serif" font-size="18" font-weight="500" fill="#F6F4EE">Log every call</text><rect x="1010" y="566" width="366" height="36" rx="9" fill="#5864C7"/><text x="1022" y="591" font-family="Montserrat, DejaVu Sans, sans-serif" font-size="15" font-weight="600" fill="#F6F4EE">CONTROLLED AUTOMATION</text><circle cx="1509" cy="176" r="6" fill="#5864C7"/><text x="922" y="732" font-family="Montserrat, DejaVu Sans, sans-serif" font-size="13" font-weight="500" fill="#A8BAC7">WORKFLOW ILLUSTRATION</text><rect x="1444" y="701" width="88" height="46" rx="11" fill="#5864C7"/><text x="1459" y="731" font-family="Montserrat, DejaVu Sans, sans-serif" font-size="22" font-weight="700" fill="#FFFFFF">19.0</text></svg>