<svg xmlns="http://www.w3.org/2000/svg" width="1600" height="800" viewBox="0 0 1600 800" role="img"><title>ModuleDex BigCommerce Connector for Odoo 19.0</title><rect x="0" y="0" width="1600" height="800" rx="0" fill="#F5F2EA"/><rect x="852" y="0" width="748" height="800" rx="0" fill="#16232D"/><path d="M876 0 V800" stroke="#24333E" stroke-width="1" stroke-linecap="round" stroke-linejoin="round" fill="none" /><path d="M924 0 V800" stroke="#24333E" stroke-width="1" stroke-linecap="round" stroke-linejoin="round" fill="none" /><path d="M972 0 V800" stroke="#24333E" stroke-width="1" stroke-linecap="round" stroke-linejoin="round" fill="none" /><path d="M1020 0 V800" stroke="#24333E" stroke-width="1" stroke-linecap="round" stroke-linejoin="round" fill="none" /><path d="M1068 0 V800" stroke="#24333E" stroke-width="1" stroke-linecap="round" stroke-linejoin="round" fill="none" /><path d="M1116 0 V800" stroke="#24333E" stroke-width="1" stroke-linecap="round" stroke-linejoin="round" fill="none" /><path d="M1164 0 V800" stroke="#24333E" stroke-width="1" stroke-linecap="round" stroke-linejoin="round" fill="none" /><path d="M1212 0 V800" stroke="#24333E" stroke-width="1" stroke-linecap="round" stroke-linejoin="round" fill="none" /><path d="M1260 0 V800" stroke="#24333E" stroke-width="1" stroke-linecap="round" stroke-linejoin="round" fill="none" /><path d="M1308 0 V800" stroke="#24333E" stroke-width="1" stroke-linecap="round" stroke-linejoin="round" fill="none" /><path d="M1356 0 V800" stroke="#24333E" stroke-width="1" stroke-linecap="round" stroke-linejoin="round" fill="none" /><path d="M1404 0 V800" stroke="#24333E" stroke-width="1" stroke-linecap="round" stroke-linejoin="round" fill="none" /><path d="M1452 0 V800" stroke="#24333E" stroke-width="1" stroke-linecap="round" stroke-linejoin="round" fill="none" /><path d="M1500 0 V800" stroke="#24333E" stroke-width="1" stroke-linecap="round" stroke-linejoin="round" fill="none" /><path d="M1548 0 V800" stroke="#24333E" stroke-width="1" stroke-linecap="round" stroke-linejoin="round" fill="none" /><path d="M1596 0 V800" stroke="#24333E" stroke-width="1" stroke-linecap="round" stroke-linejoin="round" fill="none" /><path d="M852 20 H1600" stroke="#24333E" stroke-width="1" stroke-linecap="round" stroke-linejoin="round" fill="none" /><path d="M852 68 H1600" stroke="#24333E" stroke-width="1" stroke-linecap="round" stroke-linejoin="round" fill="none" /><path d="M852 116 H1600" stroke="#24333E" stroke-width="1" stroke-linecap="round" stroke-linejoin="round" fill="none" /><path d="M852 164 H1600" stroke="#24333E" stroke-width="1" stroke-linecap="round" stroke-linejoin="round" fill="none" /><path d="M852 212 H1600" stroke="#24333E" stroke-width="1" stroke-linecap="round" stroke-linejoin="round" fill="none" /><path d="M852 260 H1600" stroke="#24333E" stroke-width="1" stroke-linecap="round" stroke-linejoin="round" fill="none" /><path d="M852 308 H1600" stroke="#24333E" stroke-width="1" stroke-linecap="round" stroke-linejoin="round" fill="none" /><path d="M852 356 H1600" stroke="#24333E" stroke-width="1" stroke-linecap="round" stroke-linejoin="round" fill="none" /><path d="M852 404 H1600" stroke="#24333E" stroke-width="1" stroke-linecap="round" stroke-linejoin="round" fill="none" /><path d="M852 452 H1600" stroke="#24333E" stroke-width="1" stroke-linecap="round" stroke-linejoin="round" fill="none" /><path d="M852 500 H1600" stroke="#24333E" stroke-width="1" stroke-linecap="round" stroke-linejoin="round" fill="none" /><path d="M852 548 H1600" stroke="#24333E" stroke-width="1" stroke-linecap="round" stroke-linejoin="round" fill="none" /><path d="M852 596 H1600" stroke="#24333E" stroke-width="1" stroke-linecap="round" stroke-linejoin="round" fill="none" /><path d="M852 644 H1600" stroke="#24333E" stroke-width="1" stroke-linecap="round" stroke-linejoin="round" fill="none" /><path d="M852 692 H1600" stroke="#24333E" stroke-width="1" stroke-linecap="round" stroke-linejoin="round" fill="none" /><path d="M852 740 H1600" stroke="#24333E" stroke-width="1" stroke-linecap="round" stroke-linejoin="round" fill="none" /><path d="M852 788 H1600" stroke="#24333E" stroke-width="1" stroke-linecap="round" stroke-linejoin="round" fill="none" /><circle cx="1464" cy="118" r="204" fill="none" stroke="#414CC4" stroke-width="2" opacity=".65"/><circle cx="1464" cy="118" r="173" fill="none" stroke="#414CC4" stroke-width="1" opacity=".4"/><rect x="62" y="55" width="46" height="46" rx="12" fill="#414CC4"/><path d="M74 84 V69 l11 10 l11 -10 V84" stroke="#FFFFFF" stroke-width="3" stroke-linecap="round" stroke-linejoin="round" fill="none" /><text x="122" y="87" font-family="Montserrat, DejaVu Sans, sans-serif" font-size="29" font-weight="700" fill="#18252F">ModuleDex</text><text x="62" y="163" font-family="Montserrat, DejaVu Sans, sans-serif" font-size="17" font-weight="700" fill="#414CC4">COMMERCE / INTEGRATION</text><rect x="62" y="185" width="67" height="5" rx="2" fill="#414CC4"/><text x="57" y="290" font-family="Montserrat, DejaVu Sans, sans-serif" font-size="72" font-weight="700" fill="#18252F">BigCommerce</text><text x="57" y="378" font-family="Montserrat, DejaVu Sans, sans-serif" font-size="72" font-weight="700" fill="#18252F">Connector</text><text x="62" y="436" font-family="Montserrat, DejaVu Sans, sans-serif" font-size="28" font-weight="500" fill="#50616B">Your store and your ERP.</text><text x="62" y="478" font-family="Montserrat, DejaVu Sans, sans-serif" font-size="28" font-weight="500" fill="#50616B">Working together.</text><circle cx="70" cy="541" r="5" fill="#414CC4"/><text x="87" y="548" font-family="Montserrat, DejaVu Sans, sans-serif" font-size="21" font-weight="600" fill="#334852">Two-way sync</text><circle cx="70" cy="578" r="5" fill="#414CC4"/><text x="87" y="585" font-family="Montserrat, DejaVu Sans, sans-serif" font-size="21" font-weight="600" fill="#334852">Orders &amp; stock</text><circle cx="70" cy="615" r="5" fill="#414CC4"/><text x="87" y="622" font-family="Montserrat, DejaVu Sans, sans-serif" font-size="21" font-weight="600" fill="#334852">Multi-storefront</text><path d="M62 692 H790" stroke="#D2D5CB" stroke-width="1" stroke-linecap="round" stroke-linejoin="round" fill="none" /><text x="62" y="733" font-family="Montserrat, DejaVu Sans, sans-serif" font-size="16" font-weight="600" fill="#50616B">ODOO 19.0  /  MODULEDEX ADDONS</text><text x="922" y="91" font-family="Montserrat, DejaVu Sans, sans-serif" font-size="16" font-weight="600" fill="#B6C7D2">THE MODULEDEX COLLECTION</text><text x="922" y="133" font-family="Montserrat, DejaVu Sans, sans-serif" font-size="22" font-weight="600" fill="#F6F4EE">COMMERCE / WORKFLOW</text><rect x="933" y="255" width="242" height="259" rx="18" fill="#101820"/><rect x="926" y="245" width="242" height="259" rx="18" fill="#202D37" stroke="#40505C"/><text x="950" y="284" font-family="Montserrat, DejaVu Sans, sans-serif" font-size="22" font-weight="600" fill="#F6F4EE">BIGCOMMERCE</text><path d="M946 304 H1148" stroke="#40505C" stroke-width="1" stroke-linecap="round" stroke-linejoin="round" fill="none" /><rect x="1260" y="255" width="242" height="259" rx="18" fill="#101820"/><rect x="1253" y="245" width="242" height="259" rx="18" fill="#202D37" stroke="#40505C"/><text x="1277" y="284" font-family="Montserrat, DejaVu Sans, sans-serif" font-size="22" font-weight="600" fill="#F6F4EE">ODOO</text><path d="M1273 304 H1475" stroke="#40505C" stroke-width="1" stroke-linecap="round" stroke-linejoin="round" fill="none" /><rect x="952" y="330" width="184" height="30" rx="7" fill="#34485F"/><text x="963" y="351" font-family="Montserrat, DejaVu Sans, sans-serif" font-size="16" font-weight="500" fill="#F6F4EE">Products</text><rect x="952" y="375" width="184" height="30" rx="7" fill="#34485F"/><text x="963" y="396" font-family="Montserrat, DejaVu Sans, sans-serif" font-size="16" font-weight="500" fill="#F6F4EE">Orders</text><rect x="952" y="420" width="184" height="30" rx="7" fill="#34485F"/><text x="963" y="441" font-family="Montserrat, DejaVu Sans, sans-serif" font-size="16" font-weight="500" fill="#F6F4EE">Inventory</text><rect x="1280" y="330" width="184" height="30" rx="7" fill="#34485F"/><text x="1291" y="351" font-family="Montserrat, DejaVu Sans, sans-serif" font-size="16" font-weight="500" fill="#F6F4EE">Products</text><rect x="1280" y="375" width="184" height="30" rx="7" fill="#34485F"/><text x="1291" y="396" font-family="Montserrat, DejaVu Sans, sans-serif" font-size="16" font-weight="500" fill="#F6F4EE">Orders</text><rect x="1280" y="420" width="184" height="30" rx="7" fill="#34485F"/><text x="1291" y="441" font-family="Montserrat, DejaVu Sans, sans-serif" font-size="16" font-weight="500" fill="#F6F4EE">Inventory</text><path d="M1178 348 H1240 m-12 -10 l12 10 l-12 10" stroke="#A8B2FF" stroke-width="3" stroke-linecap="round" stroke-linejoin="round" fill="none" /><path d="M1240 401 H1178 m12 -10 l-12 10 l12 10" stroke="#A8B2FF" stroke-width="3" stroke-linecap="round" stroke-linejoin="round" fill="none" /><rect x="1045" y="550" width="248" height="36" rx="9" fill="#414CC4"/><text x="1057" y="575" font-family="Montserrat, DejaVu Sans, sans-serif" font-size="15" font-weight="600" fill="#F6F4EE">TWO-WAY SYNC</text><text x="1018" y="617" font-family="Montserrat, DejaVu Sans, sans-serif" font-size="19" font-weight="500" fill="#A8BAC7">Customers · Refunds · Storefronts</text><circle cx="1509" cy="176" r="6" fill="#414CC4"/><text x="922" y="732" font-family="Montserrat, DejaVu Sans, sans-serif" font-size="13" font-weight="500" fill="#A8BAC7">WORKFLOW ILLUSTRATION</text><rect x="1444" y="701" width="88" height="46" rx="11" fill="#414CC4"/><text x="1459" y="731" font-family="Montserrat, DejaVu Sans, sans-serif" font-size="22" font-weight="700" fill="#FFFFFF">19.0</text></svg>